<svg width="181" height="181" viewBox="0 0 181 181" fill="none" xmlns="http://www.w3.org/2000/svg">
<path d="M18.5 41.5L160 75L138 133.5L18.5 41.5Z" fill="#00FFAD"/>
<path d="M91 46.3333V54.6667M91 121.333V129.667M49.3334 88H57.6667M124.333 88H132.667M66 113L67.4292 111.571M114.571 64.4292L116 63M116 113L114.571 111.571M67.4292 64.4292L66 63M104.604 98.9458C105.133 104.396 105.396 107.121 103.8 108.333C102.204 109.542 99.8084 108.442 95.0084 106.233L93.7667 105.658C92.4042 105.033 91.725 104.717 91 104.717C90.2792 104.717 89.5959 105.033 88.2334 105.658L86.9917 106.233C82.1917 108.442 79.7959 109.546 78.2 108.333C76.6042 107.125 76.8667 104.396 77.3959 98.9458L77.5292 97.5375C77.6834 95.9875 77.7584 95.2125 77.5292 94.4958C77.3084 93.7792 76.8125 93.1958 75.8209 92.0375L74.9167 90.9792C71.425 86.8958 69.675 84.8542 70.2875 82.8917C70.7292 81.475 72.1959 80.775 74.9167 80.0583M85.0709 74.2667C87.7084 69.5333 89.0292 67.1667 91 67.1667C92.9709 67.1667 94.2917 69.5333 96.9292 74.2667L97.6125 75.4917C98.3625 76.8375 98.7375 77.5083 99.3209 77.95C99.9042 78.3958 100.638 78.5625 102.092 78.8917L103.417 79.1917C108.542 80.35 111.104 80.9292 111.713 82.8917C112.154 84.3083 111.367 85.7667 109.579 88" stroke="black" stroke-width="6.25" stroke-linecap="round"/>
</svg>
