<?xml version="1.0" encoding="UTF-8"?>
<svg xmlns="http://www.w3.org/2000/svg" xmlns:xlink="http://www.w3.org/1999/xlink" width="232.8pt" height="165.3pt" viewBox="0 0 232.8 165.3" version="1.1">
<defs>
<clipPath id="clip1">
  <path d="M 0 137 L 232.800781 137 L 232.800781 165.300781 L 0 165.300781 Z M 0 137 "/>
</clipPath>
</defs>
<g id="surface1">
<path style=" stroke:none;fill-rule:evenodd;fill:rgb(0%,62.693787%,91.40625%);fill-opacity:1;" d="M 55.960938 97.480469 L 70.976563 94.878906 L 65.316406 93.070313 L 135.398438 30.585938 L 63.019531 75.722656 Z M 62.558594 85.9375 L 63.082031 84.308594 L 64.585938 79.671875 L 65.289063 77.496094 L 71.140625 73.847656 L 68.753906 80.085938 Z M 62.558594 85.9375 "/>
<path style=" stroke:none;fill-rule:evenodd;fill:rgb(0%,62.693787%,91.40625%);fill-opacity:1;" d="M 74.265625 91.527344 L 91.949219 97.171875 L 160.59375 35.984375 L 176.953125 -0.0078125 Z M 74.265625 91.527344 "/>
<path style=" stroke:none;fill-rule:evenodd;fill:rgb(0%,62.693787%,91.40625%);fill-opacity:1;" d="M 136.140625 89.339844 L 134.460938 76.851563 L 156.597656 45.988281 L 115.390625 82.71875 Z M 136.140625 89.339844 "/>
<path style=" stroke:none;fill-rule:evenodd;fill:rgb(0%,62.693787%,91.40625%);fill-opacity:1;" d="M 97.265625 98.875 L 160.386719 119.035156 L 136.847656 94.621094 L 111.222656 86.433594 Z M 97.265625 98.875 "/>
<path style=" stroke:none;fill-rule:evenodd;fill:rgb(0%,62.693787%,91.40625%);fill-opacity:1;" d="M 74.265625 91.527344 L 91.949219 97.171875 L 160.59375 35.984375 "/>
<path style=" stroke:none;fill-rule:evenodd;fill:rgb(0%,62.693787%,91.40625%);fill-opacity:1;" d="M 136.847656 94.621094 L 111.222656 86.433594 L 97.265625 98.875 "/>
<path style=" stroke:none;fill-rule:evenodd;fill:rgb(0%,62.693787%,91.40625%);fill-opacity:1;" d="M 136.847656 94.621094 C 123.839844 96.636719 110.621094 97.96875 97.269531 98.875 C 97.269531 98.875 127.121094 94.460938 136.847656 94.621094 Z M 136.847656 94.621094 "/>
<g clip-path="url(#clip1)" clip-rule="nonzero">
<path style=" stroke:none;fill-rule:evenodd;fill:rgb(0%,62.693787%,91.40625%);fill-opacity:1;" d="M 34.960938 157.9375 C 34.960938 159.203125 34.507813 160.398438 33.597656 161.519531 C 32.6875 162.636719 31.601563 163.53125 30.339844 164.207031 C 29.078125 164.890625 28.007813 165.230469 27.117188 165.230469 L 0.269531 165.230469 L 0.269531 148.414063 L 8.152344 148.414063 L 8.152344 158.523438 L 22.542969 158.523438 C 24.082031 158.523438 25.226563 158.09375 25.984375 157.234375 C 26.738281 156.382813 27.117188 155.296875 27.117188 153.992188 L 27.117188 148.453125 C 27.089844 147.640625 26.894531 146.933594 26.539063 146.316406 C 26.171875 145.699219 25.636719 145.21875 24.914063 144.859375 C 24.199219 144.503906 23.320313 144.328125 22.273438 144.328125 L 0.0976563 144.328125 L 0.0976563 137.925781 L 26.648438 137.925781 C 28.214844 137.925781 29.632813 138.367188 30.914063 139.257813 C 32.1875 140.148438 33.179688 141.214844 33.894531 142.46875 C 34.605469 143.714844 34.960938 144.828125 34.960938 145.808594 Z M 74.453125 157.789063 C 74.453125 158.710938 74.097656 159.761719 73.371094 160.945313 C 72.660156 162.121094 71.757813 163.136719 70.664063 163.976563 C 69.765625 164.664063 68.871094 165.070313 67.988281 165.191406 L 47.394531 165.191406 C 46.140625 165.0625 44.96875 164.625 43.867188 163.878906 C 42.539063 162.972656 41.496094 161.835938 40.734375 160.457031 C 39.976563 159.082031 39.589844 157.75 39.589844 156.449219 L 39.589844 137.925781 L 47.320313 137.925781 L 47.320313 154.425781 C 47.320313 155.179688 47.539063 155.863281 47.976563 156.492188 C 48.410156 157.125 48.929688 157.617188 49.515625 157.980469 C 50.105469 158.339844 50.632813 158.523438 51.089844 158.523438 L 62.914063 158.523438 C 63.410156 158.523438 63.9375 158.308594 64.488281 157.886719 C 65.039063 157.457031 65.496094 156.949219 65.867188 156.363281 C 66.238281 155.773438 66.417969 155.265625 66.417969 154.847656 L 66.417969 137.925781 L 74.453125 137.925781 Z M 106.652344 165.191406 L 96.988281 154.8125 L 86.8125 154.8125 L 86.8125 165.191406 L 78.890625 165.191406 L 78.890625 148.257813 L 103.566406 148.257813 C 104.058594 148.257813 104.554688 148.078125 105.035156 147.71875 C 105.515625 147.355469 105.757813 146.855469 105.757813 146.207031 C 105.757813 145.738281 105.640625 145.367188 105.40625 145.089844 C 105.171875 144.808594 104.859375 144.605469 104.484375 144.476563 C 104.097656 144.351563 103.703125 144.289063 103.28125 144.289063 L 78.890625 144.289063 L 78.890625 137.925781 L 108.6875 137.925781 C 110.085938 137.925781 111.28125 138.425781 112.289063 139.425781 C 113.289063 140.433594 113.789063 141.636719 113.789063 143.046875 L 113.789063 149.859375 C 113.789063 151.066406 113.539063 152.003906 113.054688 152.667969 C 112.570313 153.335938 111.984375 153.796875 111.300781 154.050781 C 110.617188 154.304688 109.839844 154.480469 108.953125 154.582031 C 108.070313 154.679688 107.550781 154.757813 107.394531 154.8125 L 116.953125 165.191406 Z M 151.429688 156.605469 C 151.429688 157.792969 151.246094 158.917969 150.878906 159.964844 C 150.507813 161.011719 149.988281 161.925781 149.304688 162.707031 C 148.628906 163.488281 147.808594 164.105469 146.847656 164.554688 C 146.121094 164.894531 145.347656 165.105469 144.535156 165.191406 L 125.511719 165.191406 C 124.621094 165.078125 123.621094 164.730469 122.515625 164.144531 C 121.144531 163.421875 119.96875 162.460938 118.980469 161.269531 C 117.996094 160.074219 117.503906 158.828125 117.503906 157.519531 L 117.503906 145.21875 C 117.503906 144.21875 117.894531 143.136719 118.664063 141.988281 C 119.441406 140.84375 120.449219 139.875 121.703125 139.09375 C 122.949219 138.316406 124.230469 137.925781 125.539063 137.925781 L 150.574219 137.925781 L 150.574219 144.328125 L 130.015625 144.328125 C 129.242188 144.328125 128.507813 144.515625 127.824219 144.886719 C 127.136719 145.261719 126.578125 145.746094 126.164063 146.324219 C 125.746094 146.90625 125.539063 147.503906 125.539063 148.117188 L 125.539063 154.148438 C 125.539063 155.082031 125.746094 155.902344 126.164063 156.609375 C 126.578125 157.3125 127.15625 157.851563 127.871094 158.230469 C 128.605469 158.601563 129.425781 158.789063 130.328125 158.789063 L 140.808594 158.789063 C 141.53125 158.789063 142.148438 158.601563 142.664063 158.230469 C 143.175781 157.851563 143.4375 157.347656 143.4375 156.695313 C 143.4375 156.050781 143.222656 155.566406 142.785156 155.234375 C 142.359375 154.902344 141.894531 154.738281 141.402344 154.738281 L 133.6875 154.738281 L 133.6875 148.335938 L 143.4375 148.335938 C 143.527344 148.351563 144.027344 148.453125 144.945313 148.644531 C 145.859375 148.832031 146.808594 149.203125 147.796875 149.753906 C 148.777344 150.308594 149.636719 151.144531 150.351563 152.269531 C 151.074219 153.394531 151.429688 154.835938 151.429688 156.605469 Z M 193.074219 156.929688 C 193.074219 158.4375 192.652344 159.828125 191.804688 161.09375 C 190.960938 162.371094 189.933594 163.371094 188.726563 164.117188 C 187.511719 164.859375 186.445313 165.230469 185.515625 165.230469 L 164.535156 165.230469 C 162.808594 165.230469 161.28125 164.78125 159.949219 163.878906 C 158.613281 162.972656 157.589844 161.847656 156.871094 160.503906 C 156.152344 159.160156 155.789063 157.871094 155.789063 156.644531 L 155.789063 146.402344 C 155.789063 145.285156 156.039063 144.210938 156.527344 143.191406 C 157.015625 142.167969 157.660156 141.265625 158.460938 140.480469 C 159.257813 139.6875 160.128906 139.070313 161.078125 138.609375 C 162.019531 138.152344 162.929688 137.925781 163.789063 137.925781 L 184.449219 137.925781 C 185.371094 137.925781 186.515625 138.230469 187.871094 138.84375 C 189.234375 139.445313 190.441406 140.441406 191.496094 141.8125 C 192.546875 143.183594 193.074219 144.945313 193.074219 147.101563 Z M 185.230469 154.363281 L 185.230469 148.753906 C 185.230469 147.578125 184.828125 146.578125 184.027344 145.75 C 183.226563 144.925781 181.96875 144.515625 180.238281 144.515625 L 168.148438 144.515625 C 167.679688 144.515625 167.097656 144.691406 166.40625 145.050781 C 165.71875 145.398438 165.113281 145.875 164.601563 146.453125 C 164.085938 147.039063 163.828125 147.660156 163.828125 148.316406 L 163.828125 153.660156 C 163.855469 154.941406 164.199219 156.019531 164.867188 156.890625 C 165.53125 157.769531 166.523438 158.203125 167.84375 158.203125 L 181.304688 158.203125 C 182.394531 158.203125 183.324219 157.910156 184.085938 157.320313 C 184.847656 156.726563 185.230469 155.746094 185.230469 154.363281 Z M 232.8125 157.9375 C 232.8125 159.203125 232.359375 160.398438 231.449219 161.519531 C 230.539063 162.636719 229.453125 163.53125 228.191406 164.207031 C 226.933594 164.890625 225.859375 165.230469 224.96875 165.230469 L 198.121094 165.230469 L 198.121094 148.414063 L 206.003906 148.414063 L 206.003906 158.523438 L 220.398438 158.523438 C 221.933594 158.523438 223.078125 158.09375 223.839844 157.234375 C 224.59375 156.382813 224.96875 155.296875 224.96875 153.992188 L 224.96875 148.453125 C 224.945313 147.640625 224.746094 146.933594 224.390625 146.316406 C 224.027344 145.699219 223.488281 145.21875 222.765625 144.859375 C 222.050781 144.503906 221.175781 144.328125 220.128906 144.328125 L 197.953125 144.328125 L 197.953125 137.925781 L 224.496094 137.925781 C 226.066406 137.925781 227.484375 138.367188 228.765625 139.257813 C 230.039063 140.148438 231.035156 141.214844 231.746094 142.46875 C 232.453125 143.714844 232.8125 144.828125 232.8125 145.808594 Z M 232.8125 157.9375 "/>
</g>
</g>
</svg>
