<svg width="181" height="181" viewBox="0 0 181 181" fill="none" xmlns="http://www.w3.org/2000/svg">
<path d="M49.9097 57L174 119H7L49.9097 57Z" fill="#00FFAD"/>
<path d="M69.8333 125H111.5M90.6667 50V125M53.1667 66.6667H61.5C69.8333 66.6667 82.3333 62.5 90.6667 58.3333C99 62.5 111.5 66.6667 119.833 66.6667H128.167M107.333 104.167L119.833 70.8333L132.333 104.167C128.708 106.875 124.333 108.333 119.833 108.333C115.333 108.333 110.958 106.875 107.333 104.167ZM49 104.167L61.5 70.8333L74 104.167C70.375 106.875 66 108.333 61.5 108.333C57 108.333 52.625 106.875 49 104.167Z" stroke="black" stroke-width="8.33333" stroke-linecap="round" stroke-linejoin="round"/>
</svg>
