<?xml version="1.0" encoding="UTF-8"?>
<svg id="Layer_1" data-name="Layer 1" xmlns="http://www.w3.org/2000/svg" viewBox="0 0 974.38 205.69">
  <defs>
    <style>
      .cls-1 {
        fill: #fff;
      }
      svg {
        width: 240px;
        height: 240px;
      }

    </style>
  </defs>
  <g>
    <path class="cls-1" d="m14.39,65.85v36.15H5.69v-43.65h71.55c21.15,0,36.9-7.2,36.9-24s-15.3-25.05-37.05-25.05H5.24L11.24,1.65h68.85c25.65,0,42.9,11.7,42.9,32.7s-17.1,31.5-42.9,31.5H14.39Z"/>
    <path class="cls-1" d="m137.54,102V1.65h101.7l-5.85,7.65h-87v38.55h88.8l-5.25,6.75h-83.55v39.9h93.75l-5.85,7.5h-96.75Z"/>
    <path class="cls-1" d="m348.88,1.65h8.1v95.1c0,3.9-2.25,5.7-5.1,5.7-1.2,0-2.7-.45-4.05-1.8L257.54,12.6v89.4h-8.1V6.3c0-3.9,2.4-5.7,5.1-5.7,1.2,0,2.7.45,4.2,1.95l90.15,87.9V1.65Z"/>
    <path class="cls-1" d="m421.64,102V9.3h-56.4l6.3-7.65h117.15l-5.85,7.65h-52.5v92.7h-8.7Z"/>
    <path class="cls-1" d="m498.14,102l5.55-7.5h83.55l-55.2-83.85-60.9,91.35h-10.35L526.19,4.05c1.05-1.65,3.3-3.45,5.85-3.45,2.7,0,4.8,1.65,6,3.45l64.95,97.95h-104.85Z"/>
    <path class="cls-1" d="m652.19,102c-32.4,0-56.4-22.05-56.4-51.15S619.79,1.65,652.19,1.65h60.9l-5.85,7.65h-55.05c-27.3,0-47.7,16.65-47.7,42s20.25,43.2,47.7,43.2h47.55v-40.65h-61.65l5.4-6.9h65.1v55.05h-56.4Z"/>
    <path class="cls-1" d="m788.38,103.65c-42.75,0-64.35-16.05-64.35-51.9S745.64,0,788.38,0s64.35,15.9,64.35,51.75-21.45,51.9-64.35,51.9Zm0-96c-37.65,0-55.65,12.6-55.65,44.1s18,44.4,55.65,44.4,55.5-12.75,55.5-44.4-17.85-44.1-55.5-44.1Z"/>
    <path class="cls-1" d="m966.28,1.65h8.1v95.1c0,3.9-2.25,5.7-5.1,5.7-1.2,0-2.7-.45-4.05-1.8l-90.3-88.05v89.4h-8.1V6.3c0-3.9,2.4-5.7,5.1-5.7,1.2,0,2.7.45,4.2,1.95l90.15,87.9V1.65Z"/>
  </g>
  <g>
    <path class="cls-1" d="m60.25,149.26h4.9v31.29c0,16.76-10.29,25.15-30.96,25.15-23.9,0-34.19-8.38-34.19-25.15v-31.29h4.9v31.29c0,14.36,8.55,21,29.3,21,19.25,0,26.06-6.64,26.06-21v-31.29Z"/>
    <path class="cls-1" d="m146.9,149.26h4.48v52.62c0,2.16-1.25,3.15-2.82,3.15-.66,0-1.49-.25-2.24-1l-49.96-48.72v49.46h-4.48v-52.95c0-2.16,1.33-3.15,2.82-3.15.66,0,1.49.25,2.32,1.08l49.88,48.63v-49.13Z"/>
    <path class="cls-1" d="m178.78,204.78v-34.61h4.9v30.46h28.3c14.36,0,25.06-10.21,25.06-23.9s-10.71-23.24-25.06-23.24h-33.2l3.24-4.23h29.96c17.26,0,29.88,11.2,29.88,27.22s-12.78,28.3-29.88,28.3h-33.2Z"/>
    <path class="cls-1" d="m267.84,204.78v-55.52h56.27l-3.24,4.23h-48.14v21.33h49.13l-2.9,3.73h-46.23v22.08h51.87l-3.24,4.15h-53.53Z"/>
    <path class="cls-1" d="m411.26,204.78l-23.65-20.08h-34.69v20.08h-4.81v-24.15h39.67c11.54,0,20.67-3.98,20.67-13.28,0-9.79-8.63-13.86-20.67-13.86h-39.92l3.32-4.23h38.18c13.2,0,24.15,5.39,24.15,17.84,0,10.62-8.3,16.27-20.58,16.68l25.06,21h-6.72Z"/>
    <path class="cls-1" d="m505.71,204.78l3.07-4.15h46.23l-30.54-46.39-33.69,50.54h-5.73l36.18-54.19c.58-.91,1.83-1.91,3.24-1.91,1.49,0,2.66.91,3.32,1.91l35.94,54.19h-58.01Z"/>
    <path class="cls-1" d="m597.26,204.78v-51.29h-31.21l3.49-4.23h64.82l-3.24,4.23h-29.05v51.29h-4.81Z"/>
    <path class="cls-1" d="m683.58,204.78v-51.29h-31.21l3.49-4.23h64.82l-3.24,4.23h-29.05v51.29h-4.81Z"/>
    <path class="cls-1" d="m743.92,204.78l3.07-4.15h46.23l-30.54-46.39-33.69,50.54h-5.73l36.18-54.19c.58-.91,1.83-1.91,3.24-1.91,1.49,0,2.66.91,3.32,1.91l35.94,54.19h-58.01Z"/>
    <path class="cls-1" d="m847.17,204.78c-17.93,0-31.21-12.2-31.21-28.3s13.28-27.22,31.21-27.22h33.2l-3.32,4.23h-29.88c-13.94,0-26.39,8.38-26.39,23.24s12.45,23.9,28.8,23.9h30.79l-3.32,4.15h-29.88Z"/>
    <path class="cls-1" d="m956.98,204.78l-48.3-27.47v27.47h-4.9v-55.52h4.9v24.65l45.4-24.65h8.3l-48.97,26.14,51.62,29.38h-8.05Z"/>
  </g>
</svg>