<svg width="181" height="181" viewBox="0 0 181 181" fill="none" xmlns="http://www.w3.org/2000/svg">
<path d="M6 116L154 10L88 167L6 116Z" fill="#00FFAD"/>
<path fill-rule="evenodd" clip-rule="evenodd" d="M86.9091 76.7273V93.7864C84.1784 94.7515 81.8769 96.6508 80.4112 99.1488C78.9456 101.647 78.4103 104.582 78.8999 107.437C79.3894 110.291 80.8724 112.881 83.0866 114.748C85.3009 116.614 88.1038 117.638 91 117.638C93.8962 117.638 96.6991 116.614 98.9133 114.748C101.128 112.881 102.611 110.291 103.1 107.437C103.59 104.582 103.054 101.647 101.589 99.1488C100.123 96.6508 97.8216 94.7515 95.0909 93.7864V76.7273H86.9091ZM86.9091 105.364C86.9091 104.279 87.3401 103.238 88.1073 102.471C88.8745 101.704 89.915 101.273 91 101.273C92.085 101.273 93.1255 101.704 93.8927 102.471C94.6599 103.238 95.0909 104.279 95.0909 105.364C95.0909 106.449 94.6599 107.489 93.8927 108.256C93.1255 109.024 92.085 109.455 91 109.455C89.915 109.455 88.8745 109.024 88.1073 108.256C87.3401 107.489 86.9091 106.449 86.9091 105.364Z" fill="black"/>
<path d="M91 60.3636C98.5948 60.3636 105.879 63.3807 111.249 68.751C116.619 74.1214 119.636 81.4051 119.636 89V93.0909H111.455V89C111.455 83.5751 109.3 78.3724 105.464 74.5364C101.628 70.7005 96.4249 68.5454 91 68.5454C85.5751 68.5454 80.3724 70.7005 76.5365 74.5364C72.7005 78.3724 70.5455 83.5751 70.5455 89V93.0909H62.3636V89C62.3636 81.4051 65.3807 74.1214 70.751 68.751C76.1214 63.3807 83.4052 60.3636 91 60.3636Z" fill="black"/>
<path fill-rule="evenodd" clip-rule="evenodd" d="M91 134C115.852 134 136 113.852 136 89C136 64.1477 115.852 44 91 44C66.1477 44 46 64.1477 46 89C46 113.852 66.1477 134 91 134ZM91 125.818C95.835 125.818 100.623 124.866 105.09 123.016C109.557 121.165 113.615 118.453 117.034 115.034C120.453 111.615 123.165 107.557 125.016 103.09C126.866 98.6227 127.818 93.835 127.818 89C127.818 84.165 126.866 79.3773 125.016 74.9103C123.165 70.4433 120.453 66.3845 117.034 62.9656C113.615 59.5467 109.557 56.8347 105.09 54.9844C100.623 53.1341 95.835 52.1818 91 52.1818C81.2352 52.1818 71.8704 56.0609 64.9656 62.9656C58.0609 69.8704 54.1818 79.2352 54.1818 89C54.1818 98.7648 58.0609 108.13 64.9656 115.034C71.8704 121.939 81.2352 125.818 91 125.818Z" fill="black"/>
</svg>
