<svg xmlns="http://www.w3.org/2000/svg" width="171" height="36.6" viewBox="0 0 171 36.6"><path fill="#FFCD05" d="M31.7 9.1L15.8 0 7.9 4.6l5.3 3-7.9 4.6v15.2l-2.7-1.5V10.7l5.3-3.1-2.6-1.5-5.3 3v18.3L7.9 32V13.7l10.6-6.1-5.3-3L15.8 3 29 10.7v15.2l-2.6 1.5V12.2l-5.3-3.1-10.5 6.1v18.3l2.6 1.5 2.6 1.6 2.7-1.6V19.8l2.6-1.5v-3.1l-5.3 3.1v15.2L13.2 32V16.8l7.9-4.6 2.7 1.5V32l7.9-4.6V9.1"/><g fill="#000"><path d="M37.9 6.6c0-1.2.7-1.9 2.3-1.9.6 0 1.2.1 1.8.2L41.9 6c-.5-.1-1.1-.2-1.6-.2-.9 0-1.1.3-1.1 1v2.5c0 .7.3 1 1.1 1 .5 0 1.1-.1 1.6-.2l.1 1.1c-.5.1-1.2.2-1.8.2-1.6 0-2.3-.7-2.3-1.9V6.6zM46.6 11.4l-1.5-2.2h-1.2v2.2h-1.2V4.8h2.7c1.5 0 2.1.6 2.1 1.8v.9c0 .8-.3 1.3-1 1.6l1.6 2.3h-1.5zm-1.3-5.5h-1.4v2.2h1.4c.7 0 .9-.2.9-.8v-.6c0-.6-.2-.8-.9-.8zM48.6 4.8h4v1.1h-2.8v1.6h2.6v1.1h-2.6v1.7h2.8v1.1h-4V4.8zM57.2 10h-2.4l-.4 1.4H53l2.1-6.5h1.7l2.1 6.5h-1.3l-.4-1.4zm-2.1-1.1h1.8l-.9-3-.9 3zM60.1 5.9h-1.8V4.8h4.9v1.1h-1.8v5.5h-1.2V5.9zM64.9 11.4h-1.2V4.8h1.2v6.6zM69.8 4.8H71l-2 6.5h-1.8l-2-6.5h1.3l1.6 5.4 1.7-5.4zM71.4 4.8h4v1.1h-2.8v1.6h2.6v1.1h-2.6v1.7h2.8v1.1h-4V4.8zM79.1 5.9h-1.8V4.8h4.9v1.1h-1.8v5.5h-1.2V5.9zM86.3 11.4V8.6h-2.4v2.8h-1.2V4.8h1.2v2.7h2.4V4.8h1.2v6.5h-1.2zM89.8 11.4h-1.2V4.8h1.2v6.6zM92 6.4v5h-1.2V4.8h1.6l2.5 5v-5h1.2v6.5h-1.6L92 6.4zM98.4 11.4h-1.2V4.8h1.2v6.6zm1.5-3.3l2.2 3.3h-1.4l-2.1-3.3 2-3.2h1.4l-2.1 3.2zM103.9 11.4h-1.2V4.8h1.2v6.6zM106.2 6.4v5H105V4.8h1.6l2.5 5v-5h1.2v6.5h-1.7l-2.4-4.9zM112.4 9.3c0 .6.3 1 1.1 1 .3 0 .7 0 1-.1v-2h1.2v2.9c-.7.2-1.5.3-2.2.3-1.6 0-2.4-.7-2.4-2V6.7c0-1.3.8-2 2.5-2 .5 0 1.3.1 1.9.2l-.2 1.1c-.6-.1-1.2-.2-1.8-.2-.9 0-1.1.4-1.1 1v2.5z"/></g><path fill="#000" d="M37.9 14.6h15.4v4.1h-5.2v12.4H43V18.7h-5.2v-4.1zM56.3 14.6h5.1v5.8H67v-5.8h5V31h-5.1v-6.7h-5.6V31h-5.1V14.6zM85.5 14.6h4.7l6.2 9.1v-9.1h4.8V31h-4.8l-6.2-9v9h-4.8V14.6zM105.2 14.6h5.1v6.2l5.3-6.2h6.8l-6 6.2 6.3 10.2h-6.3l-3.5-6.8-2.6 2.7v4h-5.1V14.6zM123.1 14.7h1l4.3 15.3 4.3-15.3h1.3l4.4 15.3 4.2-15.3h1.1L139 31.1h-1.1l-4.5-15.5-4.4 15.5h-1.1l-4.8-16.4zM150.7 15.6l5.2 13.7.7 1.8h1.1l-6.5-16.4h-1.1l-6.6 16.4h1.1l6.1-15.5M168.9 14.7h1.1l-6.6 9.5v6.9h-1v-6.9l-6.5-9.5h1.1l5.9 8.7 6-8.7z"/><path fill="#FFCD05" d="M76.2 31.1h5V17.8l-5 3.6"/><path fill="#000" d="M81.2 15.6v-1h-5v6.6"/></svg>